<svg id="visual" viewBox="0 0 540 960" width="540" height="960" xmlns="http://www.w3.org/2000/svg" xmlns:xlink="http://www.w3.org/1999/xlink" version="1.1"><path d="M0 288L12.8 287C25.7 286 51.3 284 77 283.3C102.7 282.7 128.3 283.3 154 284.5C179.7 285.7 205.3 287.3 231.2 288.2C257 289 283 289 308.8 287.3C334.7 285.7 360.3 282.3 386 277.5C411.7 272.7 437.3 266.3 463 266C488.7 265.7 514.3 271.3 527.2 274.2L540 277L540 0L527.2 0C514.3 0 488.7 0 463 0C437.3 0 411.7 0 386 0C360.3 0 334.7 0 308.8 0C283 0 257 0 231.2 0C205.3 0 179.7 0 154 0C128.3 0 102.7 0 77 0C51.3 0 25.7 0 12.8 0L0 0Z" fill="#6c3cc5"></path><path d="M0 194L12.8 198.3C25.7 202.7 51.3 211.3 77 216.2C102.7 221 128.3 222 154 224.2C179.7 226.3 205.3 229.7 231.2 227C257 224.3 283 215.7 308.8 213.8C334.7 212 360.3 217 386 220.2C411.7 223.3 437.3 224.7 463 221C488.7 217.3 514.3 208.7 527.2 204.3L540 200L540 0L527.2 0C514.3 0 488.7 0 463 0C437.3 0 411.7 0 386 0C360.3 0 334.7 0 308.8 0C283 0 257 0 231.2 0C205.3 0 179.7 0 154 0C128.3 0 102.7 0 77 0C51.3 0 25.7 0 12.8 0L0 0Z" fill="#7542d3"></path><path d="M0 165L12.8 162.7C25.7 160.3 51.3 155.7 77 159C102.7 162.3 128.3 173.7 154 180C179.7 186.3 205.3 187.7 231.2 183.3C257 179 283 169 308.8 166.5C334.7 164 360.3 169 386 168.5C411.7 168 437.3 162 463 157.3C488.7 152.7 514.3 149.3 527.2 147.7L540 146L540 0L527.2 0C514.3 0 488.7 0 463 0C437.3 0 411.7 0 386 0C360.3 0 334.7 0 308.8 0C283 0 257 0 231.2 0C205.3 0 179.7 0 154 0C128.3 0 102.7 0 77 0C51.3 0 25.7 0 12.8 0L0 0Z" fill="#7e48e1"></path><path d="M0 121L12.8 121.5C25.7 122 51.3 123 77 120C102.7 117 128.3 110 154 106.7C179.7 103.3 205.3 103.7 231.2 103C257 102.3 283 100.7 308.8 103.8C334.7 107 360.3 115 386 120.7C411.7 126.3 437.3 129.7 463 130.3C488.7 131 514.3 129 527.2 128L540 127L540 0L527.2 0C514.3 0 488.7 0 463 0C437.3 0 411.7 0 386 0C360.3 0 334.7 0 308.8 0C283 0 257 0 231.2 0C205.3 0 179.7 0 154 0C128.3 0 102.7 0 77 0C51.3 0 25.7 0 12.8 0L0 0Z" fill="#874eef"></path><path d="M0 81L12.8 76.5C25.7 72 51.3 63 77 59.7C102.7 56.3 128.3 58.7 154 58C179.7 57.3 205.3 53.7 231.2 54.5C257 55.3 283 60.7 308.8 65.8C334.7 71 360.3 76 386 78.7C411.7 81.3 437.3 81.7 463 81.7C488.7 81.7 514.3 81.3 527.2 81.2L540 81L540 0L527.2 0C514.3 0 488.7 0 463 0C437.3 0 411.7 0 386 0C360.3 0 334.7 0 308.8 0C283 0 257 0 231.2 0C205.3 0 179.7 0 154 0C128.3 0 102.7 0 77 0C51.3 0 25.7 0 12.8 0L0 0Z" fill="#9155fd"></path></svg>