<svg id="visual" viewBox="0 0 540 960" width="540" height="960" xmlns="http://www.w3.org/2000/svg" xmlns:xlink="http://www.w3.org/1999/xlink" version="1.1"><path d="M0 432L12.8 430.7C25.7 429.3 51.3 426.7 77 425.7C102.7 424.7 128.3 425.3 154 427C179.7 428.7 205.3 431.3 231.2 432.7C257 434 283 434 308.8 431.7C334.7 429.3 360.3 424.7 386 417.5C411.7 410.3 437.3 400.7 463 399.8C488.7 399 514.3 407 527.2 411L540 415L540 0L527.2 0C514.3 0 488.7 0 463 0C437.3 0 411.7 0 386 0C360.3 0 334.7 0 308.8 0C283 0 257 0 231.2 0C205.3 0 179.7 0 154 0C128.3 0 102.7 0 77 0C51.3 0 25.7 0 12.8 0L0 0Z" fill="#6c3cc5"></path><path d="M0 292L12.8 298.5C25.7 305 51.3 318 77 325C102.7 332 128.3 333 154 336C179.7 339 205.3 344 231.2 340C257 336 283 323 308.8 320.5C334.7 318 360.3 326 386 331C411.7 336 437.3 338 463 332.5C488.7 327 514.3 314 527.2 307.5L540 301L540 0L527.2 0C514.3 0 488.7 0 463 0C437.3 0 411.7 0 386 0C360.3 0 334.7 0 308.8 0C283 0 257 0 231.2 0C205.3 0 179.7 0 154 0C128.3 0 102.7 0 77 0C51.3 0 25.7 0 12.8 0L0 0Z" fill="#7542d3"></path><path d="M0 247L12.8 243.7C25.7 240.3 51.3 233.7 77 238.8C102.7 244 128.3 261 154 270.3C179.7 279.7 205.3 281.3 231.2 274.7C257 268 283 253 308.8 249.5C334.7 246 360.3 254 386 253.3C411.7 252.7 437.3 243.3 463 236.2C488.7 229 514.3 224 527.2 221.5L540 219L540 0L527.2 0C514.3 0 488.7 0 463 0C437.3 0 411.7 0 386 0C360.3 0 334.7 0 308.8 0C283 0 257 0 231.2 0C205.3 0 179.7 0 154 0C128.3 0 102.7 0 77 0C51.3 0 25.7 0 12.8 0L0 0Z" fill="#7e48e1"></path><path d="M0 182L12.8 182.8C25.7 183.7 51.3 185.3 77 180.7C102.7 176 128.3 165 154 159.8C179.7 154.7 205.3 155.3 231.2 154.3C257 153.3 283 150.7 308.8 155.5C334.7 160.3 360.3 172.7 386 181.3C411.7 190 437.3 195 463 196C488.7 197 514.3 194 527.2 192.5L540 191L540 0L527.2 0C514.3 0 488.7 0 463 0C437.3 0 411.7 0 386 0C360.3 0 334.7 0 308.8 0C283 0 257 0 231.2 0C205.3 0 179.7 0 154 0C128.3 0 102.7 0 77 0C51.3 0 25.7 0 12.8 0L0 0Z" fill="#874eef"></path><path d="M0 122L12.8 115.3C25.7 108.7 51.3 95.3 77 90.3C102.7 85.3 128.3 88.7 154 87.5C179.7 86.3 205.3 80.7 231.2 82C257 83.3 283 91.7 308.8 99.3C334.7 107 360.3 114 386 117.8C411.7 121.7 437.3 122.3 463 122.5C488.7 122.7 514.3 122.3 527.2 122.2L540 122L540 0L527.2 0C514.3 0 488.7 0 463 0C437.3 0 411.7 0 386 0C360.3 0 334.7 0 308.8 0C283 0 257 0 231.2 0C205.3 0 179.7 0 154 0C128.3 0 102.7 0 77 0C51.3 0 25.7 0 12.8 0L0 0Z" fill="#9155fd"></path></svg>