<svg id="visual" viewBox="0 0 540 960" width="540" height="960" xmlns="http://www.w3.org/2000/svg" xmlns:xlink="http://www.w3.org/1999/xlink" version="1.1"><path d="M0 197L12.8 193.5C25.7 190 51.3 183 77 187C102.7 191 128.3 206 154 209.7C179.7 213.3 205.3 205.7 231.2 199.8C257 194 283 190 308.8 194.7C334.7 199.3 360.3 212.7 386 215C411.7 217.3 437.3 208.7 463 203.2C488.7 197.7 514.3 195.3 527.2 194.2L540 193L540 0L527.2 0C514.3 0 488.7 0 463 0C437.3 0 411.7 0 386 0C360.3 0 334.7 0 308.8 0C283 0 257 0 231.2 0C205.3 0 179.7 0 154 0C128.3 0 102.7 0 77 0C51.3 0 25.7 0 12.8 0L0 0Z" fill="#6c3cc5"></path><path d="M0 152L12.8 154C25.7 156 51.3 160 77 164.7C102.7 169.3 128.3 174.7 154 172.3C179.7 170 205.3 160 231.2 157.8C257 155.7 283 161.3 308.8 165.8C334.7 170.3 360.3 173.7 386 176.8C411.7 180 437.3 183 463 176C488.7 169 514.3 152 527.2 143.5L540 135L540 0L527.2 0C514.3 0 488.7 0 463 0C437.3 0 411.7 0 386 0C360.3 0 334.7 0 308.8 0C283 0 257 0 231.2 0C205.3 0 179.7 0 154 0C128.3 0 102.7 0 77 0C51.3 0 25.7 0 12.8 0L0 0Z" fill="#7542d3"></path><path d="M0 126L12.8 125C25.7 124 51.3 122 77 124C102.7 126 128.3 132 154 129.2C179.7 126.3 205.3 114.7 231.2 112.7C257 110.7 283 118.3 308.8 118.7C334.7 119 360.3 112 386 111.5C411.7 111 437.3 117 463 118.8C488.7 120.7 514.3 118.3 527.2 117.2L540 116L540 0L527.2 0C514.3 0 488.7 0 463 0C437.3 0 411.7 0 386 0C360.3 0 334.7 0 308.8 0C283 0 257 0 231.2 0C205.3 0 179.7 0 154 0C128.3 0 102.7 0 77 0C51.3 0 25.7 0 12.8 0L0 0Z" fill="#7e48e1"></path><path d="M0 76L12.8 78.8C25.7 81.7 51.3 87.3 77 90C102.7 92.7 128.3 92.3 154 93.3C179.7 94.3 205.3 96.7 231.2 95.5C257 94.3 283 89.7 308.8 89.8C334.7 90 360.3 95 386 96.2C411.7 97.3 437.3 94.7 463 93.3C488.7 92 514.3 92 527.2 92L540 92L540 0L527.2 0C514.3 0 488.7 0 463 0C437.3 0 411.7 0 386 0C360.3 0 334.7 0 308.8 0C283 0 257 0 231.2 0C205.3 0 179.7 0 154 0C128.3 0 102.7 0 77 0C51.3 0 25.7 0 12.8 0L0 0Z" fill="#874eef"></path><path d="M0 58L12.8 53.3C25.7 48.7 51.3 39.3 77 40.5C102.7 41.7 128.3 53.3 154 58C179.7 62.7 205.3 60.3 231.2 55C257 49.7 283 41.3 308.8 40.7C334.7 40 360.3 47 386 49.2C411.7 51.3 437.3 48.7 463 45.5C488.7 42.3 514.3 38.7 527.2 36.8L540 35L540 0L527.2 0C514.3 0 488.7 0 463 0C437.3 0 411.7 0 386 0C360.3 0 334.7 0 308.8 0C283 0 257 0 231.2 0C205.3 0 179.7 0 154 0C128.3 0 102.7 0 77 0C51.3 0 25.7 0 12.8 0L0 0Z" fill="#9155fd"></path></svg>