<svg id="visual" viewBox="0 0 540 960" width="540" height="960" xmlns="http://www.w3.org/2000/svg" xmlns:xlink="http://www.w3.org/1999/xlink" version="1.1"><path d="M0 595L12.8 594C25.7 593 51.3 591 77 594.5C102.7 598 128.3 607 154 621.3C179.7 635.7 205.3 655.3 231.2 650C257 644.7 283 614.3 308.8 619.2C334.7 624 360.3 664 386 682.8C411.7 701.7 437.3 699.3 463 684C488.7 668.7 514.3 640.3 527.2 626.2L540 612L540 961L527.2 961C514.3 961 488.7 961 463 961C437.3 961 411.7 961 386 961C360.3 961 334.7 961 308.8 961C283 961 257 961 231.2 961C205.3 961 179.7 961 154 961C128.3 961 102.7 961 77 961C51.3 961 25.7 961 12.8 961L0 961Z" fill="#faed69"></path><path d="M0 721L12.8 712.3C25.7 703.7 51.3 686.3 77 684.7C102.7 683 128.3 697 154 700.2C179.7 703.3 205.3 695.7 231.2 697.3C257 699 283 710 308.8 723.3C334.7 736.7 360.3 752.3 386 740.5C411.7 728.7 437.3 689.3 463 667.8C488.7 646.3 514.3 642.7 527.2 640.8L540 639L540 961L527.2 961C514.3 961 488.7 961 463 961C437.3 961 411.7 961 386 961C360.3 961 334.7 961 308.8 961C283 961 257 961 231.2 961C205.3 961 179.7 961 154 961C128.3 961 102.7 961 77 961C51.3 961 25.7 961 12.8 961L0 961Z" fill="#fadb52"></path><path d="M0 744L12.8 740.7C25.7 737.3 51.3 730.7 77 724.3C102.7 718 128.3 712 154 722.7C179.7 733.3 205.3 760.7 231.2 774C257 787.3 283 786.7 308.8 776.3C334.7 766 360.3 746 386 733.3C411.7 720.7 437.3 715.3 463 725.2C488.7 735 514.3 760 527.2 772.5L540 785L540 961L527.2 961C514.3 961 488.7 961 463 961C437.3 961 411.7 961 386 961C360.3 961 334.7 961 308.8 961C283 961 257 961 231.2 961C205.3 961 179.7 961 154 961C128.3 961 102.7 961 77 961C51.3 961 25.7 961 12.8 961L0 961Z" fill="#fbc93c"></path><path d="M0 855L12.8 848C25.7 841 51.3 827 77 820.8C102.7 814.7 128.3 816.3 154 810.8C179.7 805.3 205.3 792.7 231.2 795.3C257 798 283 816 308.8 822.8C334.7 829.7 360.3 825.3 386 814.8C411.7 804.3 437.3 787.7 463 784.3C488.7 781 514.3 791 527.2 796L540 801L540 961L527.2 961C514.3 961 488.7 961 463 961C437.3 961 411.7 961 386 961C360.3 961 334.7 961 308.8 961C283 961 257 961 231.2 961C205.3 961 179.7 961 154 961C128.3 961 102.7 961 77 961C51.3 961 25.7 961 12.8 961L0 961Z" fill="#fcb627"></path><path d="M0 903L12.8 902.7C25.7 902.3 51.3 901.7 77 902.2C102.7 902.7 128.3 904.3 154 895.8C179.7 887.3 205.3 868.7 231.2 861.3C257 854 283 858 308.8 862.8C334.7 867.7 360.3 873.3 386 875C411.7 876.7 437.3 874.3 463 877.8C488.7 881.3 514.3 890.7 527.2 895.3L540 900L540 961L527.2 961C514.3 961 488.7 961 463 961C437.3 961 411.7 961 386 961C360.3 961 334.7 961 308.8 961C283 961 257 961 231.2 961C205.3 961 179.7 961 154 961C128.3 961 102.7 961 77 961C51.3 961 25.7 961 12.8 961L0 961Z" fill="#fca311"></path></svg>