<svg id="visual" viewBox="0 0 540 960" width="540" height="960" xmlns="http://www.w3.org/2000/svg" xmlns:xlink="http://www.w3.org/1999/xlink" version="1.1"><rect x="0" y="0" width="540" height="960" fill="#f7f7f7"></rect><defs><linearGradient id="grad1_0" x1="0%" y1="0%" x2="100%" y2="100%"><stop offset="30%" stop-color="#fbae3c" stop-opacity="1"></stop><stop offset="70%" stop-color="#fbae3c" stop-opacity="1"></stop></linearGradient></defs><defs><linearGradient id="grad1_1" x1="0%" y1="0%" x2="100%" y2="100%"><stop offset="30%" stop-color="#fbae3c" stop-opacity="1"></stop><stop offset="70%" stop-color="#ffd29c" stop-opacity="1"></stop></linearGradient></defs><defs><linearGradient id="grad1_2" x1="0%" y1="0%" x2="100%" y2="100%"><stop offset="30%" stop-color="#f7f7f7" stop-opacity="1"></stop><stop offset="70%" stop-color="#ffd29c" stop-opacity="1"></stop></linearGradient></defs><defs><linearGradient id="grad2_0" x1="0%" y1="0%" x2="100%" y2="100%"><stop offset="30%" stop-color="#fbae3c" stop-opacity="1"></stop><stop offset="70%" stop-color="#fbae3c" stop-opacity="1"></stop></linearGradient></defs><defs><linearGradient id="grad2_1" x1="0%" y1="0%" x2="100%" y2="100%"><stop offset="30%" stop-color="#ffd29c" stop-opacity="1"></stop><stop offset="70%" stop-color="#fbae3c" stop-opacity="1"></stop></linearGradient></defs><defs><linearGradient id="grad2_2" x1="0%" y1="0%" x2="100%" y2="100%"><stop offset="30%" stop-color="#ffd29c" stop-opacity="1"></stop><stop offset="70%" stop-color="#f7f7f7" stop-opacity="1"></stop></linearGradient></defs><g transform="translate(540, 0)"><path d="M0 486C-51.3 451.8 -102.5 417.6 -165.7 400C-228.9 382.4 -303.9 381.4 -343.7 343.7C-383.4 305.9 -387.7 231.4 -405.6 168C-423.4 104.6 -454.7 52.3 -486 0L0 0Z" fill="#fee4c9"></path><path d="M0 324C-34.2 301.2 -68.4 278.4 -110.5 266.7C-152.6 255 -202.6 254.3 -229.1 229.1C-255.6 203.9 -258.5 154.3 -270.4 112C-282.3 69.7 -303.1 34.9 -324 0L0 0Z" fill="#ffc06e"></path><path d="M0 162C-17.1 150.6 -34.2 139.2 -55.2 133.3C-76.3 127.5 -101.3 127.1 -114.6 114.6C-127.8 102 -129.2 77.1 -135.2 56C-141.1 34.9 -151.6 17.4 -162 0L0 0Z" fill="#fbae3c"></path></g><g transform="translate(0, 960)"><path d="M0 -486C63.9 -480.7 127.8 -475.5 186 -449C244.2 -422.6 296.8 -374.9 320.3 -320.3C343.9 -265.7 338.5 -204.2 361.2 -149.6C384 -95.1 435 -47.5 486 0L0 0Z" fill="#fee4c9"></path><path d="M0 -324C42.6 -320.5 85.2 -317 124 -299.3C162.8 -281.7 197.8 -249.9 213.5 -213.5C229.3 -177.2 225.6 -136.1 240.8 -99.8C256 -63.4 290 -31.7 324 0L0 0Z" fill="#ffc06e"></path><path d="M0 -162C21.3 -160.2 42.6 -158.5 62 -149.7C81.4 -140.9 98.9 -125 106.8 -106.8C114.6 -88.6 112.8 -68.1 120.4 -49.9C128 -31.7 145 -15.8 162 0L0 0Z" fill="#fbae3c"></path></g></svg>