<svg id="visual" viewBox="0 0 540 960" width="540" height="960" xmlns="http://www.w3.org/2000/svg" xmlns:xlink="http://www.w3.org/1999/xlink" version="1.1"><rect x="0" y="0" width="540" height="960" fill="#F4F5FA"></rect><defs><linearGradient id="grad1_0" x1="0%" y1="0%" x2="100%" y2="100%"><stop offset="30%" stop-color="#9155fd" stop-opacity="1"></stop><stop offset="70%" stop-color="#9155fd" stop-opacity="1"></stop></linearGradient></defs><defs><linearGradient id="grad1_1" x1="0%" y1="0%" x2="100%" y2="100%"><stop offset="30%" stop-color="#9155fd" stop-opacity="1"></stop><stop offset="70%" stop-color="#f4f5fa" stop-opacity="1"></stop></linearGradient></defs><defs><linearGradient id="grad2_0" x1="0%" y1="0%" x2="100%" y2="100%"><stop offset="30%" stop-color="#9155fd" stop-opacity="1"></stop><stop offset="70%" stop-color="#9155fd" stop-opacity="1"></stop></linearGradient></defs><defs><linearGradient id="grad2_1" x1="0%" y1="0%" x2="100%" y2="100%"><stop offset="30%" stop-color="#f4f5fa" stop-opacity="1"></stop><stop offset="70%" stop-color="#9155fd" stop-opacity="1"></stop></linearGradient></defs><g transform="translate(540, 0)"><path d="M0 486C-62.8 478.5 -125.7 470.9 -186 449C-246.3 427.1 -304.1 390.8 -342.2 342.2C-380.4 293.7 -398.8 232.8 -419.4 173.7C-440.1 114.7 -463.1 57.3 -486 0L0 0Z" fill="#afadff"></path><path d="M0 243C-31.4 239.2 -62.8 235.5 -93 224.5C-123.2 213.5 -152.1 195.4 -171.1 171.1C-190.2 146.8 -199.4 116.4 -209.7 86.9C-220.1 57.3 -231.5 28.7 -243 0L0 0Z" fill="#9155fd"></path></g><g transform="translate(0, 960)"><path d="M0 -486C49.9 -441.7 99.8 -397.5 155.4 -375.1C210.9 -352.7 272.1 -352.3 325.3 -325.3C378.4 -298.2 423.6 -244.6 449 -186C474.5 -127.3 480.2 -63.7 486 0L0 0Z" fill="#afadff"></path><path d="M0 -243C25 -220.9 49.9 -198.7 77.7 -187.5C105.5 -176.4 136.1 -176.1 162.6 -162.6C189.2 -149.1 211.8 -122.3 224.5 -93C237.2 -63.7 240.1 -31.8 243 0L0 0Z" fill="#9155fd"></path></g></svg>