<svg id="visual" viewBox="0 0 540 960" width="540" height="960" xmlns="http://www.w3.org/2000/svg" xmlns:xlink="http://www.w3.org/1999/xlink" version="1.1"><rect x="0" y="0" width="540" height="960" fill="#f7f7f7"></rect><defs><linearGradient id="grad1_0" x1="0%" y1="0%" x2="100%" y2="100%"><stop offset="30%" stop-color="#f7f7f7" stop-opacity="1"></stop><stop offset="70%" stop-color="#f7f7f7" stop-opacity="1"></stop></linearGradient></defs><defs><linearGradient id="grad2_0" x1="0%" y1="0%" x2="100%" y2="100%"><stop offset="30%" stop-color="#f7f7f7" stop-opacity="1"></stop><stop offset="70%" stop-color="#f7f7f7" stop-opacity="1"></stop></linearGradient></defs><g transform="translate(540, 0)"><path d="M0 486C-59.5 456.8 -118.9 427.6 -162.6 392.6C-206.4 357.7 -234.3 317.1 -285.7 285.7C-337 254.3 -411.7 232.1 -449 186C-486.3 139.9 -486.1 70 -486 0L0 0Z" fill="#fca311"></path></g><g transform="translate(0, 960)"><path d="M0 -486C71 -484.9 142.1 -483.8 184.5 -445.3C226.8 -406.8 240.5 -331 286.4 -286.4C332.3 -241.8 410.4 -228.5 449 -186C487.6 -143.5 486.8 -71.7 486 0L0 0Z" fill="#fca311"></path></g></svg>