<svg width="1024" height="1202" viewBox="0 0 1024 1202" fill="none" xmlns="http://www.w3.org/2000/svg">
<rect y="66" width="1024" height="1024" rx="128" fill="#FCA311"/>
<path d="M512 967.12C453.973 967.12 404.48 957.563 363.52 938.448C323.243 918.651 290.475 891.685 265.216 857.552C240.64 823.419 222.549 784.848 210.944 741.84C199.339 698.149 193.536 652.752 193.536 605.648V234.96H334.848V605.648C334.848 635.685 337.579 665.04 343.04 693.712C349.184 721.701 359.083 746.96 372.736 769.488C386.389 792.016 404.48 809.765 427.008 822.736C449.536 835.707 477.525 842.192 510.976 842.192C545.109 842.192 573.44 835.707 595.968 822.736C619.179 809.083 637.269 790.992 650.24 768.464C663.893 745.936 673.792 720.677 679.936 692.688C686.08 664.016 689.152 635.003 689.152 605.648V234.96H829.44V605.648C829.44 655.483 823.296 702.245 811.008 745.936C799.403 789.627 780.629 828.197 754.688 861.648C729.429 894.416 696.661 920.357 656.384 939.472C616.107 957.904 567.979 967.12 512 967.12Z" fill="#14213D"/>
<rect x="456" y="683" width="112" height="370" fill="#FCA311"/>
</svg>
