<svg width="108" height="108" viewBox="0 0 108 108" fill="none" xmlns="http://www.w3.org/2000/svg">
<circle cx="54" cy="54" r="54" fill="black"/>
<path d="M53.625 88.435C48.695 88.435 44.49 87.623 41.01 85.999C37.588 84.317 34.804 82.026 32.658 79.126C30.57 76.226 29.033 72.949 28.047 69.295C27.061 65.583 26.568 61.726 26.568 57.724V26.23H38.574V57.724C38.574 60.276 38.806 62.77 39.27 65.206C39.792 67.584 40.633 69.73 41.793 71.644C42.953 73.558 44.49 75.066 46.404 76.168C48.318 77.27 50.696 77.821 53.538 77.821C56.438 77.821 58.845 77.27 60.759 76.168C62.731 75.008 64.268 73.471 65.37 71.557C66.53 69.643 67.371 67.497 67.893 65.119C68.415 62.683 68.676 60.218 68.676 57.724V26.23H80.595V57.724C80.595 61.958 80.073 65.931 79.029 69.643C78.043 73.355 76.448 76.632 74.244 79.474C72.098 82.258 69.314 84.462 65.892 86.086C62.47 87.652 58.381 88.435 53.625 88.435Z" fill="white"/>
<rect x="50" y="62" width="8" height="32" fill="black"/>
</svg>
